<svg width="100" height="92" xmlns="http://www.w3.org/2000/svg" xmlns:xlink="http://www.w3.org/1999/xlink" overflow="hidden"><defs><clipPath id="clip0"><path d="M589 105 689 105 689 197 589 197Z" fill-rule="evenodd" clip-rule="evenodd"/></clipPath><clipPath id="clip1"><path d="M590 106 688 106 688 197 590 197Z" fill-rule="evenodd" clip-rule="evenodd"/></clipPath><clipPath id="clip2"><path d="M590 106 688 106 688 197 590 197Z" fill-rule="evenodd" clip-rule="evenodd"/></clipPath><clipPath id="clip3"><path d="M590 106 691 106 691 231 590 231Z" fill-rule="evenodd" clip-rule="evenodd"/></clipPath></defs><g clip-path="url(#clip0)" transform="translate(-589 -105)"><g clip-path="url(#clip1)"><g clip-path="url(#clip2)"><g clip-path="url(#clip3)"><path d="M49.9602 28.5772C38.1696 28.5772 28.5772 38.1696 28.5772 49.9602 28.5772 61.7508 38.1696 71.3432 49.9602 71.3432 61.7508 71.3432 71.3432 61.7508 71.3432 49.9602 71.3432 38.1696 61.7508 28.5772 49.9602 28.5772ZM49.9602 69.3448C39.2687 69.3448 30.5756 60.6517 30.5756 49.9602 30.5756 39.2687 39.2687 30.5756 49.9602 30.5756 60.6517 30.5756 69.3448 39.2687 69.3448 49.9602 69.3448 60.6517 60.6517 69.3448 49.9602 69.3448Z" transform="matrix(1.0008 0 -0 1 590.001 106)"/><path d="M50.9594 26.6787 50.9594 18.9849C50.9594 18.4853 50.5597 17.9857 49.9602 17.9857 49.4606 17.9857 48.961 18.3854 48.961 18.9849L48.961 26.6787C49.2608 26.6787 49.5605 26.6787 49.9602 26.6787 50.26 26.6787 50.5597 26.6787 50.9594 26.6787Z" transform="matrix(1.0008 0 -0 1 590.001 106)"/><path d="M48.961 73.2417 48.961 80.9355C48.961 81.4351 49.3607 81.9347 49.9602 81.9347 50.4598 81.9347 50.9594 81.535 50.9594 80.9355L50.9594 73.2417C50.6596 73.2417 50.3599 73.2417 49.9602 73.2417 49.6604 73.2417 49.3607 73.2417 48.961 73.2417Z" transform="matrix(1.0008 0 -0 1 590.001 106)"/><path d="M41.0673 28.3774C41.367 28.2775 41.6668 28.1776 41.9666 28.0776 42.2663 27.9777 42.5661 27.8778 42.8658 27.7779L40.2679 20.4837C40.0681 19.9841 39.5685 19.6843 39.0689 19.8842 38.5693 20.084 38.2695 20.5836 38.4694 21.0832L41.0673 28.3774Z" transform="matrix(1.0008 0 -0 1 590.001 106)"/><path d="M58.8531 71.543C58.5533 71.6429 58.2536 71.7428 57.9538 71.8428 57.6541 71.9427 57.3543 72.0426 57.0545 72.1425L59.6525 79.4367C59.8523 79.9363 60.3519 80.2361 60.8515 80.0362 61.3511 79.8364 61.6509 79.3368 61.451 78.8372L58.8531 71.543Z" transform="matrix(1.0008 0 -0 1 590.001 106)"/><path d="M34.2727 32.7739C34.4725 32.574 34.7723 32.3742 34.9721 32.1744 35.172 31.9745 35.4717 31.7747 35.6716 31.5748L30.6756 25.6795C30.3758 25.2799 29.7763 25.1799 29.3766 25.5796 28.9769 25.8794 28.877 26.4789 29.2767 26.8786L34.2727 32.7739Z" transform="matrix(1.0008 0 -0 1 590.001 106)"/><path d="M65.6477 67.1465C65.4479 67.3463 65.1481 67.5462 64.9483 67.746 64.7484 67.9459 64.4487 68.1457 64.2488 68.3456L69.2448 74.2409C69.5446 74.6405 70.1441 74.7405 70.5438 74.3408 70.9435 74.041 71.0434 73.4415 70.6437 73.0418L65.6477 67.1465Z" transform="matrix(1.0008 0 -0 1 590.001 106)"/><path d="M22.582 35.2719 29.2767 39.1688C29.3766 38.869 29.5764 38.5693 29.7763 38.3694 29.9761 38.0697 30.076 37.8698 30.2759 37.5701L23.5812 33.6732C23.0816 33.3734 22.582 33.5732 22.2822 33.9729 21.9825 34.3726 22.1823 34.9721 22.582 35.2719Z" transform="matrix(1.0008 0 -0 1 590.001 106)"/><path d="M77.3384 64.6485 70.6437 60.7516C70.5438 61.0514 70.344 61.3511 70.1441 61.551 69.9443 61.8507 69.8444 62.0506 69.6445 62.3503L76.3392 66.2472C76.8388 66.547 77.3384 66.3471 77.6381 65.9475 77.9379 65.5478 77.7381 64.9483 77.3384 64.6485Z" transform="matrix(1.0008 0 -0 1 590.001 106)"/><path d="M19.1847 45.4638 26.7787 46.7627C26.7787 46.463 26.8786 46.1632 26.8786 45.8635 26.9785 45.5637 26.9785 45.2639 27.0784 44.9642L19.4845 43.6652C18.9849 43.5653 18.4853 43.965 18.3854 44.4646 18.3854 44.9642 18.6851 45.4638 19.1847 45.4638Z" transform="matrix(1.0008 0 -0 1 590.001 106)"/><path d="M80.7357 54.4566 73.1417 53.1576C73.1417 53.4574 73.0418 53.7572 73.0418 54.0569 72.9419 54.3567 72.9419 54.6565 72.842 54.9562L80.4359 56.2552C80.9355 56.3551 81.4351 55.9554 81.535 55.4558 81.535 54.9562 81.2353 54.4566 80.7357 54.4566Z" transform="matrix(1.0008 0 -0 1 590.001 106)"/><path d="M26.9785 54.0569C26.8786 53.7572 26.8786 53.4574 26.8786 53.1576L19.2846 54.4566C18.785 54.5565 18.3854 55.0561 18.4853 55.5557 18.5852 56.0553 19.0848 56.455 19.5844 56.3551L27.1783 55.0561C27.0784 54.6565 27.0784 54.3567 26.9785 54.0569Z" transform="matrix(1.0008 0 -0 1 590.001 106)"/><path d="M72.9419 45.8635C73.0418 46.1632 73.0418 46.463 73.0418 46.7627L80.6357 45.4638C81.1354 45.3639 81.535 44.8643 81.4351 44.3647 81.3352 43.8651 80.8356 43.4654 80.336 43.5653L72.7421 44.9642C72.842 45.2639 72.842 45.5637 72.9419 45.8635Z" transform="matrix(1.0008 0 -0 1 590.001 106)"/><path d="M29.7763 61.6509C29.5764 61.3511 29.4765 61.0514 29.2767 60.8515L22.582 64.7484C22.1823 64.9483 21.9825 65.5478 22.2822 65.9475 22.582 66.4471 23.0816 66.547 23.5812 66.2472L30.2759 62.3503C30.076 62.1505 29.8762 61.8507 29.7763 61.6509Z" transform="matrix(1.0008 0 -0 1 590.001 106)"/><path d="M70.1441 38.2695C70.344 38.5693 70.4439 38.869 70.6437 39.0689L77.3384 35.172C77.838 34.8722 77.9379 34.3726 77.6381 33.873 77.3384 33.3734 76.8388 33.2735 76.3392 33.5732L69.6445 37.4701C69.8444 37.7699 70.0442 38.0697 70.1441 38.2695Z" transform="matrix(1.0008 0 -0 1 590.001 106)"/><path d="M34.2727 67.1465 29.2767 73.0418C28.9769 73.4415 28.9769 74.041 29.3766 74.3408 29.7763 74.6405 30.3758 74.6405 30.6756 74.2409L35.6716 68.3456C35.3718 68.1457 35.172 67.9459 34.9721 67.746 34.7723 67.6461 34.4725 67.4463 34.2727 67.1465Z" transform="matrix(1.0008 0 -0 1 590.001 106)"/><path d="M65.6477 32.7739 70.6437 26.8786C70.9435 26.4789 70.9435 25.8794 70.5438 25.5796 70.1441 25.2799 69.5446 25.2799 69.2448 25.6795L64.2488 31.5748C64.5486 31.7747 64.7484 31.9745 64.9483 32.1744 65.1481 32.2743 65.4479 32.4741 65.6477 32.7739Z" transform="matrix(1.0008 0 -0 1 590.001 106)"/><path d="M41.0673 71.543 38.4694 78.8372C38.2695 79.3368 38.5693 79.8364 39.0689 80.0362 39.5685 80.2361 40.0681 79.9363 40.2679 79.4367L42.8658 72.1425C42.5661 72.0426 42.2663 71.9427 41.9666 71.8428 41.6668 71.7428 41.367 71.6429 41.0673 71.543Z" transform="matrix(1.0008 0 -0 1 590.001 106)"/><path d="M58.8531 28.3774 61.451 21.0832C61.6509 20.5836 61.3511 20.084 60.8515 19.8842 60.3519 19.6843 59.8523 19.9841 59.6525 20.4837L57.0545 27.7779C57.3543 27.8778 57.6541 27.9777 57.9538 28.0776 58.2536 28.1776 58.5533 28.2775 58.8531 28.3774Z" transform="matrix(1.0008 0 -0 1 590.001 106)"/><text font-family="Arial,Arial_MSFontService,sans-serif" font-weight="700" font-size="5" transform="matrix(1 0 0 0.999204 590.001 221)">Created by Abdo<tspan x="0" y="5.00398">from the Noun Project</tspan></text></g></g></g></g></svg>