<svg xmlns="http://www.w3.org/2000/svg" viewBox="0 0 16 20" x="0px" y="0px"><title>cloudy, cloud, sky, scene, mode</title><g data-name="12"><path d="M13.58,7.18A2.82,2.82,0,0,0,13,7s0,0,0,0A3,3,0,0,0,8.93,4.22,5.44,5.44,0,0,0,5.5,3a5.5,5.5,0,0,0,0,11h7A3.5,3.5,0,0,0,16,10.5,3.45,3.45,0,0,0,13.58,7.18ZM12,7s0,0,0,.06a3.27,3.27,0,0,0-1.11.35A5.54,5.54,0,0,0,9.74,5,2.3,2.3,0,0,1,10,5,2,2,0,0,1,12,7Zm.5,6h-7a4.5,4.5,0,0,1,0-9A4.51,4.51,0,0,1,10,8.32a.5.5,0,0,0,.84.35,2.44,2.44,0,0,1,2.44-.54A2.47,2.47,0,0,1,15,10.5,2.5,2.5,0,0,1,12.5,13Z"/><path d="M10.5,3a.5.5,0,0,0,.5-.5v-1a.5.5,0,0,0-1,0v1A.5.5,0,0,0,10.5,3Z"/><path d="M13.5,4a.47.47,0,0,0,.35-.15l1-1a.49.49,0,0,0-.7-.7l-1,1a.48.48,0,0,0,0,.7A.47.47,0,0,0,13.5,4Z"/><path d="M14,6.5a.5.5,0,0,0,.5.5h1a.5.5,0,0,0,0-1h-1A.5.5,0,0,0,14,6.5Z"/></g><text x="0" y="31" fill="#000000" font-size="5px" font-weight="bold" font-family="'Helvetica Neue', Helvetica, Arial-Unicode, Arial, Sans-serif">Created by Kantor Tegalsari</text><text x="0" y="36" fill="#000000" font-size="5px" font-weight="bold" font-family="'Helvetica Neue', Helvetica, Arial-Unicode, Arial, Sans-serif">from the Noun Project</text></svg>