<svg width="104" height="101" xmlns="http://www.w3.org/2000/svg" xmlns:xlink="http://www.w3.org/1999/xlink" overflow="hidden"><defs><clipPath id="clip0"><path d="M589 297 693 297 693 398 589 398Z" fill-rule="evenodd" clip-rule="evenodd"/></clipPath><clipPath id="clip1"><path d="M590 298 693 298 693 398 590 398Z" fill-rule="evenodd" clip-rule="evenodd"/></clipPath><clipPath id="clip2"><path d="M590 298 691 298 691 398 590 398Z" fill-rule="evenodd" clip-rule="evenodd"/></clipPath><clipPath id="clip3"><path d="M590 298 691 298 691 423 590 423Z" fill-rule="evenodd" clip-rule="evenodd"/></clipPath></defs><g clip-path="url(#clip0)" transform="translate(-589 -297)"><g clip-path="url(#clip1)"><g clip-path="url(#clip2)"><g clip-path="url(#clip3)"><path d="M42.5495 27.9968C43.6511 27.9968 44.5452 27.1027 44.5452 26.0011L44.5452 17.4625C44.5452 16.3608 43.6511 15.4667 42.5495 15.4667 41.4479 15.4667 40.5538 16.3608 40.5538 17.4625L40.5538 26.0011C40.5538 27.1027 41.4469 27.9968 42.5495 27.9968Z" transform="matrix(1.00634 0 -0 1 590 298)"/><path d="M11.9743 36.268 19.3684 40.5368C19.6827 40.7185 20.0259 40.8053 20.3642 40.8053 21.0537 40.8053 21.7243 40.447 22.0945 39.8074 22.6453 38.8525 22.319 37.6321 21.3641 37.0813L13.97 32.8115C13.012 32.2576 11.7946 32.5869 11.2438 33.5419 10.693 34.4958 11.0193 35.7162 11.9743 36.268Z" transform="matrix(1.00634 0 -0 1 590 298)"/><path d="M64.7358 40.8043C65.0741 40.8043 65.4184 40.7185 65.7317 40.5358L73.1258 36.267C74.0807 35.7162 74.407 34.4958 73.8562 33.5409 73.3044 32.5869 72.083 32.2576 71.1301 32.8105L63.736 37.0793C62.781 37.6301 62.4547 38.8505 63.0055 39.8054 63.3757 40.446 64.0463 40.8043 64.7358 40.8043Z" transform="matrix(1.00634 0 -0 1 590 298)"/><path d="M19.3694 62.6952 11.9753 66.964C11.0203 67.5148 10.694 68.7352 11.2448 69.6902 11.615 70.3308 12.2856 70.688 12.9751 70.688 13.3134 70.688 13.6576 70.6022 13.971 70.4196L21.3651 66.1508C22.32 65.6 22.6463 64.3796 22.0955 63.4246 21.5437 62.4707 20.3233 62.1414 19.3694 62.6952Z" transform="matrix(1.00634 0 -0 1 590 298)"/><path d="M86.8133 70.3487C82.2951 70.3487 77.653 68.0277 72.7386 65.57 67.6256 63.0135 62.338 60.3702 56.8777 60.3702 51.4174 60.3702 46.1298 63.0135 41.0168 65.57 36.1024 68.0277 31.4604 70.3487 26.9421 70.3487 25.8404 70.3487 24.9464 71.2428 24.9464 72.3445 24.9464 73.4461 25.8404 74.3402 26.9421 74.3402 32.4023 74.3402 37.69 71.6968 42.803 69.1404 47.7174 66.6826 52.3594 64.3616 56.8777 64.3616 61.396 64.3616 66.038 66.6826 70.9525 69.1404 76.0655 71.6968 81.3531 74.3402 86.8133 74.3402 87.915 74.3402 88.8091 73.4461 88.8091 72.3445 88.8091 71.2428 87.915 70.3487 86.8133 70.3487Z" transform="matrix(1.00634 0 -0 1 590 298)"/><path d="M86.8133 80.3273C82.2951 80.3273 77.653 78.0063 72.7386 75.5486 67.6256 72.9921 62.338 70.3487 56.8777 70.3487 51.4174 70.3487 46.1298 72.9921 41.0168 75.5486 36.1024 78.0063 31.4604 80.3273 26.9421 80.3273 25.8404 80.3273 24.9464 81.2214 24.9464 82.323 24.9464 83.4246 25.8404 84.3187 26.9421 84.3187 32.4023 84.3187 37.69 81.6754 42.803 79.1189 47.7174 76.6612 52.3594 74.3402 56.8777 74.3402 61.396 74.3402 66.038 76.6612 70.9525 79.1189 76.0655 81.6754 81.3531 84.3187 86.8133 84.3187 87.915 84.3187 88.8091 83.4246 88.8091 82.323 88.8091 81.2214 87.915 80.3273 86.8133 80.3273Z" transform="matrix(1.00634 0 -0 1 590 298)"/><path d="M24.9464 62.3659C24.9464 63.4675 25.8404 64.3616 26.9421 64.3616 27.7713 64.3616 28.5965 64.2948 29.4178 64.182 29.4247 64.181 29.4317 64.182 29.4387 64.181 29.4517 64.179 29.4637 64.176 29.4766 64.174 34.0418 63.5354 38.4843 61.3212 42.802 59.1628 47.7174 56.7041 52.3594 54.3831 56.8777 54.3831 57.3667 54.3831 57.8576 54.422 58.3505 54.4739 58.5312 54.4938 58.7138 54.5168 58.8994 54.5427 62.782 55.0886 66.7674 57.0683 70.9535 59.1618 76.0655 61.7183 81.3531 64.3616 86.8133 64.3616 87.915 64.3616 88.8091 63.4675 88.8091 62.3659 88.8091 61.2643 87.915 60.3702 86.8133 60.3702 82.2951 60.3702 77.653 58.0492 72.7386 55.5915 69.1104 53.7774 65.3944 51.9244 61.5906 50.9984 61.2613 40.7683 52.8574 32.543 42.5495 32.543 32.0331 32.543 23.4775 41.0986 23.4775 51.615 23.4775 54.8491 24.2748 57.9494 25.8025 60.7304 25.2856 61.0917 24.9464 61.6884 24.9464 62.3659ZM42.5495 36.5345C50.4585 36.5345 56.9645 42.6533 57.5822 50.4056 57.4774 50.4016 57.3726 50.4056 57.2679 50.4026 57.1372 50.4006 57.0084 50.3917 56.8777 50.3917 56.8119 50.3917 56.746 50.3966 56.6801 50.3976 56.5195 50.3996 56.3598 50.4056 56.2002 50.4116 56.0126 50.4186 55.827 50.4276 55.6404 50.4406 55.4707 50.4525 55.3001 50.4675 55.1305 50.4845 54.9608 50.5014 54.7902 50.5194 54.6206 50.5403 54.432 50.5633 54.2424 50.5912 54.0538 50.6202 53.9101 50.6421 53.7674 50.6651 53.6237 50.69 53.4082 50.7279 53.1926 50.7688 52.9781 50.8128 52.8673 50.8357 52.7556 50.8597 52.6448 50.8846 52.3983 50.9385 52.1529 50.9964 51.9074 51.0592 51.8346 51.0782 51.7617 51.0971 51.6869 51.1171 51.4075 51.1909 51.1271 51.2688 50.8477 51.3516 50.8147 51.3616 50.7818 51.3715 50.7469 51.3815 47.434 52.3814 44.198 53.9989 41.0168 55.5875 40.1217 56.0345 39.2376 56.4756 38.3605 56.8997 38.2727 56.9416 38.1859 56.9835 38.0981 57.0264 37.7129 57.211 37.3307 57.3916 36.9496 57.5682 36.7959 57.6391 36.6422 57.7069 36.4895 57.7768 35.3709 58.2837 34.2643 58.7417 33.1677 59.1299 32.9551 59.2057 32.7416 59.2805 32.5301 59.3504 32.2337 59.4482 31.9383 59.538 31.643 59.6228 31.4214 59.6867 31.2019 59.7436 30.9814 59.8004 30.693 59.8743 30.4056 59.9481 30.1192 60.009 30.0933 60.014 30.0674 60.017 30.0414 60.022 28.354 57.5293 27.4679 54.6455 27.4679 51.614 27.4679 43.2999 34.2344 36.5345 42.5495 36.5345Z" transform="matrix(1.00634 0 -0 1 590 298)"/><text font-family="Arial,Arial_MSFontService,sans-serif" font-weight="700" font-size="5" transform="matrix(1.00418 0 0 0.997855 590 413)">Created by OliM<tspan x="0" y="5.01075">from the Noun Project</tspan></text></g></g></g></g></svg>