<svg xmlns="http://www.w3.org/2000/svg" xmlns:xlink="http://www.w3.org/1999/xlink" version="1.1" x="0px" y="0px" viewBox="0 0 100 125" style="enable-background:new 0 0 100 100;" xml:space="preserve"><g><path d="M79.4,26.1h-0.1c-0.5-11.7-10.1-21-21.9-21C52,5.1,46.9,7,42.9,10.5c-2.1-0.8-4.3-1.3-6.5-1.3c-9.5,0-17.3,7.5-17.7,17   c-6,1-10.5,6.1-10.5,12.3c0,6.9,5.6,12.5,12.5,12.5h58.8c6.9,0,12.5-5.6,12.5-12.5S86.3,26.1,79.4,26.1z M79.4,47.1H20.6   c-4.7,0-8.5-3.8-8.5-8.5s3.8-8.5,8.6-8.5c0.6,0,1.1-0.2,1.5-0.6c0.4-0.4,0.6-0.9,0.5-1.5l0-0.2c0-0.2,0-0.5,0-0.7   c0-7.6,6.2-13.8,13.8-13.8c2.1,0,4.1,0.5,6,1.4c0.8,0.4,1.7,0.2,2.3-0.4c3.4-3.4,7.9-5.2,12.7-5.2c9.9,0,18,8.1,18,18   c0,0.2,0,0.4,0,0.6l0,0.4c0,0.5,0.2,1.1,0.5,1.5c0.4,0.4,0.9,0.6,1.5,0.6h2.2c4.7,0,8.5,3.8,8.5,8.5S84.1,47.1,79.4,47.1z"/><path d="M57.1,58c-0.4-0.4-1.1-0.7-1.7-0.6l-6.8,0.8c-2,0.2-3.8,1.3-5,2.9s-1.7,3.6-1.4,5.6c0,0,0,0,0,0c0.5,3.1,2.9,5.5,6,6   c0.4,0.1,0.8,0.1,1.2,0.1c1.6,0,3.1-0.5,4.4-1.5c1.6-1.2,2.6-3,2.9-5l0.8-6.8C57.8,59.1,57.6,58.5,57.1,58z M52.9,66   c-0.1,0.9-0.6,1.7-1.3,2.3c-0.7,0.5-1.6,0.8-2.5,0.6c-1.4-0.2-2.5-1.3-2.7-2.7h0c-0.1-0.9,0.1-1.8,0.6-2.5s1.3-1.2,2.3-1.3l4.2-0.5   L52.9,66z"/><path d="M27.1,58c-0.4-0.4-1-0.7-1.7-0.6l-6.8,0.8c-2,0.2-3.8,1.3-5,2.9s-1.7,3.6-1.4,5.6c0,0,0,0,0,0c0.5,3.1,2.9,5.5,6,6   c0.4,0.1,0.8,0.1,1.2,0.1c1.6,0,3.1-0.5,4.4-1.5c1.6-1.2,2.6-3,2.9-5l0.8-6.8C27.8,59.1,27.6,58.5,27.1,58z M22.9,66   c-0.1,0.9-0.6,1.7-1.3,2.3c-0.7,0.5-1.6,0.8-2.5,0.6c-1.4-0.2-2.5-1.3-2.7-2.7h0c-0.1-0.9,0.1-1.8,0.6-2.5s1.3-1.2,2.3-1.3l4.2-0.5   L22.9,66z"/><path d="M85.5,57.5l-6.8,0.8c-2,0.2-3.8,1.3-5,2.9c-1.2,1.6-1.7,3.6-1.4,5.6c0.5,3.1,2.9,5.5,6,6c0.4,0.1,0.8,0.1,1.2,0.1   c1.6,0,3.1-0.5,4.4-1.5c1.6-1.2,2.6-3,2.9-5l0.8-6.8c0.1-0.6-0.1-1.2-0.6-1.7C86.7,57.6,86.1,57.4,85.5,57.5z M82.9,66   c-0.1,0.9-0.6,1.7-1.3,2.3c-0.7,0.5-1.6,0.8-2.5,0.6c-1.4-0.2-2.5-1.3-2.7-2.7c-0.1-0.9,0.1-1.8,0.6-2.5c0.5-0.7,1.4-1.2,2.3-1.3   l4.2-0.5L82.9,66z"/><path d="M40.5,79.5l-6.8,0.8c-2,0.2-3.8,1.3-5,2.9s-1.7,3.6-1.4,5.6c0,0,0,0,0,0c0.5,3.1,2.9,5.5,6,6c0.4,0.1,0.8,0.1,1.2,0.1   c1.6,0,3.1-0.5,4.4-1.5c1.6-1.2,2.6-3,2.9-5l0.8-6.8c0.1-0.6-0.1-1.2-0.6-1.7C41.7,79.6,41.1,79.4,40.5,79.5z M37.9,88   c-0.1,0.9-0.6,1.7-1.3,2.3c-0.7,0.5-1.6,0.8-2.5,0.6c-1.4-0.2-2.5-1.3-2.7-2.7h0c-0.1-0.9,0.1-1.8,0.6-2.5s1.3-1.2,2.3-1.3l4.2-0.5   L37.9,88z"/><path d="M70.5,79.5l-6.8,0.8c-2,0.2-3.8,1.3-5,2.9c-1.2,1.6-1.7,3.6-1.4,5.6c0.5,3.1,2.9,5.5,6,6c0.4,0.1,0.8,0.1,1.2,0.1   c1.6,0,3.1-0.5,4.4-1.5c1.6-1.2,2.6-3,2.9-5l0.8-6.8c0.1-0.6-0.1-1.2-0.6-1.7C71.7,79.6,71.1,79.4,70.5,79.5z M67.9,88   c-0.1,0.9-0.6,1.7-1.3,2.3c-0.7,0.5-1.6,0.8-2.5,0.6c-1.4-0.2-2.5-1.3-2.7-2.7c-0.1-0.9,0.1-1.8,0.6-2.5c0.5-0.7,1.4-1.2,2.3-1.3   l4.2-0.5L67.9,88z"/></g><text x="0" y="115" fill="#000000" font-size="5px" font-weight="bold" font-family="'Helvetica Neue', Helvetica, Arial-Unicode, Arial, Sans-serif">Created by IconMark</text><text x="0" y="120" fill="#000000" font-size="5px" font-weight="bold" font-family="'Helvetica Neue', Helvetica, Arial-Unicode, Arial, Sans-serif">from the Noun Project</text></svg>