<svg xmlns="http://www.w3.org/2000/svg" xmlns:xlink="http://www.w3.org/1999/xlink" version="1.1" x="0px" y="0px" viewBox="0 0 100 125" enable-background="new 0 0 100 100" xml:space="preserve"><g display="none"><path display="inline" fill="none" stroke="#000000" stroke-width="4" stroke-miterlimit="10" d="M90,35.5   C90,25.835,82.165,18,72.5,18c-0.186,0-0.365,0.022-0.549,0.028C67.708,10.266,59.469,5,50,5c-11.394,0-21.001,7.626-24.013,18.05   C25.659,23.028,25.333,23,25,23c-8.284,0-15,6.716-15,15s6.716,15,15,15c0.755,0,1.491-0.074,2.217-0.182   C29.854,57.12,34.584,60,40,60c3.847,0,7.345-1.461,10-3.842C52.655,58.539,56.153,60,60,60c5.343,0,10.021-2.803,12.679-7.009   C82.26,52.894,90,45.105,90,35.5z"/><polygon display="inline" fill="none" stroke="#000000" stroke-width="3" stroke-miterlimit="10" points="50,80 54.5,75.5 50,65    45.5,75.5  "/><polygon display="inline" fill="none" stroke="#000000" stroke-width="3" stroke-miterlimit="10" points="50,80 54.5,84.5 65,80    54.5,75.5  "/><polyline display="inline" fill="none" stroke="#000000" stroke-width="3" stroke-miterlimit="10" points="54.5,89 60.5,90.5    59,84.5  "/><polyline display="inline" fill="none" stroke="#000000" stroke-width="3" stroke-miterlimit="10" points="59,75.5 60.5,69.5    54.5,71  "/><polyline display="inline" fill="none" stroke="#000000" stroke-width="3" stroke-miterlimit="10" points="45.5,71 39.5,69.5    41,75.5  "/><polyline display="inline" fill="none" stroke="#000000" stroke-width="3" stroke-miterlimit="10" points="41,84.5 39.5,90.5    45.5,89  "/><polygon display="inline" fill="none" stroke="#000000" stroke-width="3" stroke-miterlimit="10" points="50,80 45.5,84.5 50,95    54.5,84.5  "/><polygon display="inline" fill="none" stroke="#000000" stroke-width="3" stroke-miterlimit="10" points="50,80 45.5,75.5 35,80    45.5,84.5  "/><polygon display="inline" fill="none" stroke="#000000" stroke-width="2" stroke-miterlimit="10" points="15,70 18,67 15,60 12,67     "/><polygon display="inline" fill="none" stroke="#000000" stroke-width="2" stroke-miterlimit="10" points="15,70 18,73 25,70 18,67     "/><polyline display="inline" fill="none" stroke="#000000" stroke-width="2" stroke-miterlimit="10" points="18,76 22,77 21,73  "/><polyline display="inline" fill="none" stroke="#000000" stroke-width="2" stroke-miterlimit="10" points="21,67 22,63 18,64  "/><polyline display="inline" fill="none" stroke="#000000" stroke-width="2" stroke-miterlimit="10" points="12,64 8,63 9,67  "/><polyline display="inline" fill="none" stroke="#000000" stroke-width="2" stroke-miterlimit="10" points="9,73 8,77 12,76  "/><polygon display="inline" fill="none" stroke="#000000" stroke-width="2" stroke-miterlimit="10" points="15,70 12,73 15,80 18,73     "/><polygon display="inline" fill="none" stroke="#000000" stroke-width="2" stroke-miterlimit="10" points="15,70 12,67 5,70 12,73     "/><polygon display="inline" fill="none" stroke="#000000" stroke-width="2" stroke-miterlimit="10" points="85,70 88,67 85,60 82,67     "/><polygon display="inline" fill="none" stroke="#000000" stroke-width="2" stroke-miterlimit="10" points="85,70 88,73 95,70 88,67     "/><polyline display="inline" fill="none" stroke="#000000" stroke-width="2" stroke-miterlimit="10" points="88,76 92,77 91,73  "/><polyline display="inline" fill="none" stroke="#000000" stroke-width="2" stroke-miterlimit="10" points="91,67 92,63 88,64  "/><polyline display="inline" fill="none" stroke="#000000" stroke-width="2" stroke-miterlimit="10" points="82,64 78,63 79,67  "/><polyline display="inline" fill="none" stroke="#000000" stroke-width="2" stroke-miterlimit="10" points="79,73 78,77 82,76  "/><polygon display="inline" fill="none" stroke="#000000" stroke-width="2" stroke-miterlimit="10" points="85,70 82,73 85,80 88,73     "/><polygon display="inline" fill="none" stroke="#000000" stroke-width="2" stroke-miterlimit="10" points="85,70 82,67 75,70 82,73     "/></g><g><g><path d="M92,35.5c0-10.554-8.427-19.176-18.905-19.491C68.21,7.955,59.471,3,50,3c-11.43,0-21.682,7.33-25.457,18.006    C15.379,21.249,8,28.779,8,38c0,9.374,7.626,17,17,17c0.4,0,0.807-0.017,1.232-0.052C29.429,59.387,34.485,62,40,62    c3.606,0,7.099-1.151,10-3.271C52.901,60.849,56.394,62,60,62c5.498,0,10.567-2.615,13.767-7.049C83.915,54.292,92,45.781,92,35.5    z M71.569,51.002l-0.581,0.92C68.584,55.728,64.477,58,60,58c-3.192,0-6.27-1.183-8.665-3.331L50,53.472l-1.335,1.197    C46.27,56.817,43.192,58,40,58c-4.547,0-8.688-2.328-11.078-6.227l-0.691-1.127l-1.308,0.195C26.189,50.949,25.578,51,25,51    c-7.168,0-13-5.832-13-13s5.832-13,13-13c0.222,0,0.439,0.017,0.657,0.032l1.804,0.119l0.447-1.546C30.732,13.828,39.817,7,50,7    c8.416,0,16.154,4.593,20.195,11.987l0.59,1.079l1.229-0.039c0.104-0.003,0.206-0.01,0.308-0.017C72.381,20.006,72.439,20,72.5,20    C81.047,20,88,26.953,88,35.5c0,8.456-6.882,15.406-15.342,15.491L71.569,51.002z"/><path d="M22.074,72.658l1.3-6.032l-6.032,1.301L15,62.461l-2.342,5.465l-6.032-1.301l1.3,6.032L2.461,75l5.465,2.342l-1.3,6.032    l6.032-1.301L15,87.539l2.342-5.465l6.032,1.301l-1.3-6.032L27.539,75L22.074,72.658z M20.626,69.375L20.05,71.79l-1.289-0.552    l-0.552-1.288L20.626,69.375z M15,67.539l1.814,4.233L15,73.586l-1.814-1.815L15,67.539z M11.791,69.95l-0.552,1.288L9.95,71.79    l-0.576-2.416L11.791,69.95z M9.374,80.625L9.95,78.21l1.289,0.552l0.552,1.288L9.374,80.625z M11.771,76.814L7.539,75    l4.232-1.814L13.586,75L11.771,76.814z M15,82.461l-1.814-4.233L15,76.414l1.814,1.815L15,82.461z M18.209,80.05l0.552-1.288    l1.289-0.552l0.576,2.416L18.209,80.05z M18.229,76.814L16.414,75l1.814-1.814L22.461,75L18.229,76.814z"/><path d="M97.539,75l-5.465-2.342l1.3-6.032l-6.032,1.301L85,62.461l-2.342,5.465l-6.032-1.301l1.3,6.032L72.461,75l5.465,2.342    l-1.3,6.032l6.032-1.301L85,87.539l2.342-5.465l6.032,1.301l-1.3-6.032L97.539,75z M90.626,69.375L90.05,71.79l-1.289-0.552    l-0.552-1.288L90.626,69.375z M85,67.539l1.814,4.233L85,73.586l-1.814-1.815L85,67.539z M81.791,69.95l-0.552,1.288L79.95,71.79    l-0.576-2.416L81.791,69.95z M79.374,80.625l0.576-2.416l1.289,0.552l0.552,1.288L79.374,80.625z M81.771,76.814L77.539,75    l4.232-1.814L83.586,75L81.771,76.814z M85,82.461l-1.814-4.233L85,76.414l1.814,1.815L85,82.461z M86.414,75l1.814-1.814    L92.461,75l-4.232,1.814L86.414,75z M88.209,80.05l0.552-1.288l1.289-0.552l0.576,2.416L88.209,80.05z"/><path d="M56.762,77.658l1.3-6.032l-6.032,1.301l-2.342-5.465l-2.342,5.465l-6.032-1.301l1.3,6.032L37.149,80l5.465,2.342    l-1.3,6.032l6.032-1.301l2.342,5.465l2.342-5.465l6.032,1.301l-1.3-6.032L62.227,80L56.762,77.658z M55.314,74.375l-0.576,2.416    l-1.289-0.552l-0.552-1.288L55.314,74.375z M49.688,72.539l1.814,4.233l-1.814,1.815l-1.814-1.815L49.688,72.539z M46.479,74.95    l-0.552,1.288l-1.289,0.552l-0.576-2.416L46.479,74.95z M44.062,85.625l0.576-2.416l1.289,0.552l0.552,1.288L44.062,85.625z     M46.46,81.814L42.227,80l4.232-1.814L48.274,80L46.46,81.814z M49.688,87.461l-1.814-4.233l1.814-1.815l1.814,1.815    L49.688,87.461z M52.897,85.05l0.552-1.288l1.289-0.552l0.576,2.416L52.897,85.05z M52.917,81.814L51.102,80l1.814-1.814    L57.149,80L52.917,81.814z"/></g></g><text x="0" y="115" fill="#000000" font-size="5px" font-weight="bold" font-family="'Helvetica Neue', Helvetica, Arial-Unicode, Arial, Sans-serif">Created by DEMOGRAPH</text><text x="0" y="120" fill="#000000" font-size="5px" font-weight="bold" font-family="'Helvetica Neue', Helvetica, Arial-Unicode, Arial, Sans-serif">from the Noun Project</text></svg>